Coordinates
version=1
nRows=29
nColumns=24
inDegrees=yes

Units are S.I. units (second, meters, Newtons, ...)
Angles are in degrees.

endheader
time	pelvis_tilt	pelvis_list	pelvis_rotation	pelvis_tx	pelvis_ty	pelvis_tz	hip_flexion_r	hip_adduction_r	hip_rotation_r	knee_angle_r	ankle_angle_r	subtalar_angle_r	mtp_angle_r	hip_flexion_l	hip_adduction_l	hip_rotation_l	knee_angle_l	ankle_angle_l	subtalar_angle_l	mtp_angle_l	lumbar_extension	lumbar_bending	lumbar_rotation
      4.96500000	     -5.18505087	     -3.00213470	      2.40211091	      0.41172415	      1.01137369	     -0.20127724	     20.70702159	      7.16883658	     -3.36973306	    -24.10361173	     21.12449658	      1.90636283	      0.00000000	     14.60449962	     -7.47590371	    -10.06221223	    -65.31769048	    -15.40462930	     -6.79150194	      0.00000000	     -8.73174682	      4.79988475	     -1.59877620
      4.97000000	     -5.15987125	     -3.02238550	      2.24044172	      0.41787672	      1.01233066	     -0.20087984	     20.12682341	      7.27941392	     -3.19877251	    -23.77223346	     21.27775440	      2.00235685	      0.00000000	     15.39943438	     -7.55565933	    -10.11578334	    -66.00882662	    -14.14954741	     -6.74131118	      0.00000000	     -8.80333932	      4.76909095	     -1.22717095
      4.97500000	     -5.14053341	     -3.03600055	      2.07799004	      0.42402681	      1.01330065	     -0.20041432	     19.53507478	      7.39853179	     -2.95807241	    -23.40067509	     21.35763526	      1.97783716	      0.00000000	     16.18826790	     -7.63331171	    -10.17622332	    -66.62501772	    -12.88304820	     -6.67094514	      0.00000000	     -8.86513762	      4.72143830	     -0.88701535
      4.98000000	     -5.11445627	     -3.03931363	      1.90803635	      0.43015733	      1.01429745	     -0.19993245	     18.92852744	      7.51040046	     -2.69341432	    -23.01138274	     21.40212865	      1.91964707	      0.00000000	     16.95596358	     -7.70443241	    -10.26185604	    -67.16111726	    -11.65982130	     -6.64165491	      0.00000000	     -8.93436173	      4.65898662	     -0.54128773
      4.98500000	     -5.08157959	     -3.03067694	      1.73011425	      0.43629418	      1.01530760	     -0.19944285	     18.30539897	      7.61186574	     -2.40179320	    -22.60632225	     21.43276302	      1.84427917	      0.00000000	     17.69805770	     -7.76455610	    -10.36923238	    -67.61630114	    -10.48672173	     -6.65726051	      0.00000000	     -9.00876518	      4.58255524	     -0.19233557
      4.99000000	     -5.04285020	     -3.01389757	      1.54038055	      0.44241951	      1.01633230	     -0.19892783	     17.66701758	      7.70914181	     -2.07746236	    -22.18200785	     21.43506661	      1.73626312	      0.00000000	     18.41398560	     -7.81906071	    -10.49816029	    -67.99000445	     -9.36045494	     -6.70604600	      0.00000000	     -9.08898542	      4.49441354	      0.16045622
      4.99500000	     -4.99720183	     -2.98896576	      1.34304651	      0.44853794	      1.01736964	     -0.19840100	     17.01261236	      7.79988270	     -1.72428429	    -21.73938871	     21.40863784	      1.59296141	      0.00000000	     19.10184024	     -7.86638650	    -10.64577416	    -68.28036884	     -8.29417294	     -6.79709330	      0.00000000	     -9.17571981	      4.39385860	      0.51435941
      5.00000000	     -4.94316438	     -2.95575918	      1.13693608	      0.45464774	      1.01841915	     -0.19786025	     16.34093252	      7.88397875	     -1.34120081	    -21.27872621	     21.35070051	      1.40747394	      0.00000000	     19.75875951	     -7.90617378	    -10.81154633	    -68.48791986	     -7.28899874	     -6.92338063	      0.00000000	     -9.27088924	      4.28294728	      0.87509356
      5.00500000	     -4.88531859	     -2.91470375	      0.92910206	      0.46075077	      1.01946683	     -0.19732623	     15.65780834	      7.95697838	     -0.93199013	    -20.80400900	     21.27717824	      1.20438951	      0.00000000	     20.39099358	     -7.93512343	    -10.98759871	    -68.61400446	     -6.35325957	     -7.08554949	      0.00000000	     -9.36904484	      4.16370245	      1.23164975
      5.01000000	     -4.82374887	     -2.86426173	      0.71519755	      0.46684335	      1.02052036	     -0.19679634	     14.96364495	      8.01770615	     -0.50898354	    -20.31238963	     21.17594321	      0.96707902	      0.00000000	     20.99456333	     -7.94997467	    -11.17398599	    -68.65417977	     -5.48640327	     -7.27584771	      0.00000000	     -9.46891015	      4.03500490	      1.58527388
      5.01500000	     -4.76014170	     -2.80785518	      0.49784400	      0.47292408	      1.02156420	     -0.19626961	     14.26188489	      8.06873340	     -0.06160083	    -19.80929037	     21.05314795	      0.70559761	      0.00000000	     21.57443232	     -7.95536911	    -11.36635290	    -68.61606100	     -4.68297496	     -7.47479766	      0.00000000	     -9.57092737	      3.89876312	      1.94005608
      5.02000000	     -4.69421422	     -2.74615097	      0.27457893	      0.47899824	      1.02260420	     -0.19574706	     13.54946392	      8.11034378	      0.40138739	    -19.28743408	     20.90274622	      0.41333286	      0.00000000	     22.12694637	     -7.95138188	    -11.56507621	    -68.49687494	     -3.93727253	     -7.67271904	      0.00000000	     -9.67261979	      3.75608511	      2.29445459
      5.02500000	     -4.62764063	     -2.67907389	      0.04900326	      0.48504599	      1.02362351	     -0.19523697	     12.83093028	      8.14072193	      0.88584698	    -18.75188984	     20.73238160	      0.09792574	      0.00000000	     22.65822013	     -7.93615090	    -11.76357434	    -68.30379931	     -3.23508802	     -7.85542015	      0.00000000	     -9.77436160	      3.61118614	      2.64879794
      5.03000000	     -4.54002638	     -2.62145309	     -0.19076712	      0.49112455	      1.02466681	     -0.19470579	     12.07536349	      8.17825371	      1.36226966	    -18.18359696	     20.51030291	     -0.26475895	      0.00000000	     23.13776401	     -7.93317252	    -11.97277940	    -68.03181722	     -2.57979594	     -8.01737728	      0.00000000	     -9.89467444	      3.47118378	      3.03163018
      5.03500000	     -4.48826106	     -2.53533231	     -0.41216818	      0.49714010	      1.02561931	     -0.19426899	     11.36050451	      8.16960294	      1.87690701	    -17.62185997	     20.32586276	     -0.59756434	      0.00000000	     23.64074779	     -7.87084645	    -12.14674387	    -67.68899602	     -1.92488525	     -8.13590070	      0.00000000	     -9.98105014	      3.31208191	      3.35891648
      5.04000000	     -4.42392096	     -2.47008786	     -0.66307712	      0.50318797	      1.02656678	     -0.19377769	     10.61575707	      8.18342007	      2.41027210	    -17.02634134	     20.08474886	     -0.97812885	      0.00000000	     24.10048384	     -7.84160633	    -12.34324267	    -67.27675628	     -1.28727246	     -8.22325242	      0.00000000	    -10.07247673	      3.17037703	      3.72303174
      5.04500000	     -4.30909226	     -2.43305965	     -0.91726033	      0.50923380	      1.02755899	     -0.19328617	      9.80364711	      8.21880006	      2.93533081	    -16.39711936	     19.78436546	     -1.40114696	      0.00000000	     24.48489195	     -7.83893997	    -12.53495337	    -66.79514984	     -0.66729383	     -8.29639552	      0.00000000	    -10.22572809	      3.06096262	      4.10675398
      5.05000000	     -4.23898836	     -2.35939853	     -1.16508034	      0.51527815	      1.02845443	     -0.19285482	      9.03721148	      8.20002381	      3.46494594	    -15.76724850	     19.51946202	     -1.79082543	      0.00000000	     24.89161761	     -7.77444853	    -12.69935270	    -66.23773131	     -0.01776718	     -8.28568833	      0.00000000	    -10.32026705	      2.91661543	      4.46283074
      5.05500000	     -4.17439458	     -2.28680258	     -1.41268941	      0.52132234	      1.02930571	     -0.19244614	      8.26878565	      8.17157854	      3.99535520	    -15.11902679	     19.23605327	     -2.19232752	      0.00000000	     25.28194291	     -7.69937775	    -12.84608549	    -65.61140981	      0.64497972	     -8.22266155	      0.00000000	    -10.40472621	      2.77606595	      4.81755953
      5.06000000	     -4.11130104	     -2.21169713	     -1.65777768	      0.52736358	      1.03011414	     -0.19206872	      7.49533427	      8.12828674	      4.52758496	    -14.45549581	     18.94375966	     -2.59739470	      0.00000000	     25.65076607	     -7.60832161	    -12.97442808	    -64.91467742	      1.32728743	     -8.10790053	      0.00000000	    -10.48535238	      2.63704025	      5.16497568
      5.06500000	     -4.05890812	     -2.12828432	     -1.89439589	      0.53340817	      1.03086156	     -0.19173044	      6.72803936	      8.06319149	      5.04899336	    -13.77948691	     18.65833100	     -2.99418376	      0.00000000	     26.00936343	     -7.49128430	    -13.07333325	    -64.14921788	      2.02347817	     -7.93463610	      0.00000000	    -10.54945830	      2.49157810	      5.50520541
      5.07000000	     -4.00817334	     -2.04027376	     -2.13260097	      0.53941836	      1.03158638	     -0.19143993	      5.96466757	      7.97981515	      5.56427030	    -13.09955168	     18.33191422	     -3.39517486	      0.00000000	     26.34289806	     -7.35737869	    -13.16367774	    -63.30385087	      2.73612771	     -7.72784628	      0.00000000	    -10.61703023	      2.34969566	      5.81205901
      5.07500000	     -3.97591458	     -1.94462575	     -2.36410673	      0.54543595	      1.03223196	     -0.19117529	      5.21943470	      7.87721699	      6.06572846	    -12.41490243	     18.02458324	     -3.77691339	      0.00000000	     26.67475562	     -7.20353448	    -13.22744763	    -62.39419668	      3.45294829	     -7.45517738	      0.00000000	    -10.65760751	      2.20059701	      6.12220086
      5.08000000	     -3.94487393	     -1.84037511	     -2.58378877	      0.55143942	      1.03283895	     -0.19095070	      4.47671638	      7.75444595	      6.55258665	    -11.72428942	     17.69792190	     -4.17566039	      0.00000000	     26.98458679	     -7.02720357	    -13.27030114	    -61.41008352	      4.15629022	     -7.15201433	      0.00000000	    -10.69816657	      2.04567001	      6.41638551
      5.08500000	     -3.94569238	     -1.73025051	     -2.78015987	      0.55743601	      1.03333722	     -0.19081077	      3.77472431	      7.60936632	      6.99864281	    -11.04446959	     17.42696125	     -4.49149596	      0.00000000	     27.31431217	     -6.82142322	    -13.26225837	    -60.36851958	      4.83823981	     -6.80613679	      0.00000000	    -10.69953004	      1.89165497	      6.69078613
      5.09000000	     -3.91973901	     -1.61537362	     -3.00090936	      0.56342678	      1.03386026	     -0.19063069	      3.05300347	      7.45916157	      7.44254366	    -10.36950264	     17.06280851	     -4.91546308	      0.00000000	     27.57334505	     -6.62735880	    -13.29977132	    -59.23832205	      5.51131453	     -6.44759390	      0.00000000	    -10.73661125	      1.73278307	      6.95641494
      5.09500000	     -3.91700615	     -1.49700553	     -3.19088775	      0.56941464	      1.03428467	     -0.19054234	      2.36680969	      7.29102169	      7.83800639	     -9.71320279	     16.75551699	     -5.26123341	      0.00000000	     27.84260980	     -6.40503671	    -13.28368630	    -58.05017386	      6.13696710	     -6.07082039	      0.00000000	    -10.74499894	      1.57850854	      7.20127864
      5.10000000	     -3.91828974	     -1.37742722	     -3.37061321	      0.57542430	      1.03465278	     -0.19046597	      1.69134867	      7.11603882	      8.20732760	     -9.06746921	     16.44265917	     -5.60491570	      0.00000000	     28.09093959	     -6.17727603	    -13.25317276	    -56.79902924	      6.70465296	     -5.68920102	      0.00000000	    -10.74555980	      1.41915660	      7.43513016
      5.10500000	     -4.04534058	     -1.25946362	     -3.49072045	      0.58138778	      1.03478512	     -0.19056689	      1.20984688	      6.93478563	      8.26015506	     -8.52296532	     16.27940226	     -5.65302579	      0.00000000	     28.47030737	     -5.91495470	    -13.13885242	    -55.49712410	      7.20198375	     -5.32460710	      0.00000000	    -10.59809558	      1.29325405	      7.58957008
